<?xml version="1.0" encoding="UTF-8"?>
<svg viewBox="0 0 512 512" xmlns="http://www.w3.org/2000/svg">
 <!--
  SPDX-License-Identifier: LicenseRef-Runink-Trademark
  SPDX-FileCopyrightText: Runink
  Runink River community mark (primary, badge): ink dog silhouette on a side-on log raft, roundel. For 48px and up. -->
 <title>Runink River</title>
 <circle cx="256" cy="256" r="232" fill="#fdf5e6"/>
 <path transform="translate(150 72.1) scale(.4)" d="m165 26c27.63 9.942 57.61 4.025 86.16 2.526 23.93-0.812 48.22 4.205 69.84 11.47 11.72 5.502 27.91 14.81 38 20 38.49 17.69 36.42 65.44 60 93 9.502 10.5 22.13 11.78 32.22 17.25 16.8 10.14 34.59 10.01 46.78 19.75 19.12-2.55 27.93 27.47 18.76 37.27-5.842 8.587-13.82 26.91-19.76 33.73-8.565 18.74-28.34 32.39-40 39-35.49 17.43-80.2 2.036-112 27-19.56 12.77-12.59 47.29-7 59 5.401 8.87 14.14 17.44 21.69 28.9 7.887 11.33 18.48 29.67 11.31 37.1-0.8985-9.146-27.83-25.21-18.02-13.03 6.998 10.94 7.373 15.98 13.3 27.64 8.695 25.74 3.866 55.48-5.274 78.39-11.05 21.32-1.512-25.02-18.27-35.98-4.323-0.063-0.4789 29.22-7.428 38.98-10.51 26.53-27.82 48.4-52.57 65.76-27.88 24.12 5.568-19.24 1.268-15.76 1.35-7.204 12.25-28.21 12.63-42.54 4.134-30.72-4.613-61.79-10.87-90.73-7.053-10.84-7.329-30.29-10.93-44.06-4.55-39.46 8.373-65.25 31.35-91.64 16.79-16.67 30.24-20.03 51.82-29.03-29.52-0.619-61.88 6.928-83 28-11.31 9.211-25.27 30.49-22.74-0.9577 5.82-14.51 7.418-29.15-10.26-4.042-6.111 12.01-9.397-2.659-8.716-17.38 1.737-21.04 4.668-21.95 12.72-41.62-17.49 9.514-25.76 28.56-36 45-11.5 21.17 5.435 62.01-2 73-15.61-17.57-25.3-32.21-19.13 2.284 4.665 19.64 9.911 40.84 25.13 54.72-20.27-1.668-38.86-10.56-53.11-27.8-16.93-22.53 10.04 28.69 5.862 25.69 10.33 16.29 16.11 21.96 32.72 36.38 26.39 23.05 53.71 50.17 58.94 86.5 0.8147 22.47 1.007 47.15-14.41 65.24-7.388 21.8-10.9 2.463-14-13-9.382-8.641-14.37-25-28.27-31-20.06-14.41-32.56-18.03-52.08-28.47-19.39-6.005-34.89-15.83-52.66-26.91-20.85-16.78-34.25-35.51-41.73-58.34-3.956-8.912-2.571-42.15-10.35-18.46-4.892 18.64-3.581 38.76-13.91 6.185-16.76-29.68-14.68-79.8 0-102.4 0.02853-16.69 26.74-42.9-3.371-19.65-6.879 9.696-22.74 33.24-16.39 7.752 2.725-12.59 5.518-31.23 12.83-37.85 3.312-8.406 8.932-17.62 18.25-28.7 27.13-23.14 3.597-9.172-19.32-15.16 16.98-7.608 28.22-19.77 41-33 6.078-13.6 17.2-28.32 17.15-45.86 5.619-25.87-22.5 20.74-15.19-13.59 3.553-21.92 15.25-49.65-7.822-23.72-0.3607-33.05 26.17-61.16 56.87-74.82 12.89-3.045 38.15-9.505 5-14 19.33-19.91 79.75 2.089 45-28zm74 63c-22.99 20.55-15.94 54.57-20.91 82.78-3.674 27.26-15.25 74.59-53.09 61.22-26.08-17.7-48.72-42.7-70-67 1.526 11.68 9.674 17.54 15.52 31.72 11.23 16.99 28.26 32.83 44.48 47.28 15.19 11.37 53.04 7.66 59-14 15.04-18.24 15.17-43.67 19.55-65.78 0.7718-25.42-6.171-53.53 5.454-76.22zm127 56c-7.358-27.19-75.13 29.38-38 16.41 18.37-4.494 56.82 13.17 40-16.41z" fill="#1d2b3a" fill-rule="evenodd"/>
 <g id="raft" stroke="#1d2b3a">
  <rect x="128" y="314" width="256" height="30" rx="15" fill="#efc48f" stroke-width="7"/>
  <path d="m149 320q-7 9 0 18m214-18q7 9 0 18" fill="none" stroke-linecap="round" stroke-width="4"/>
  <rect x="114" y="344" width="284" height="32" rx="16" fill="#efc48f" stroke-width="7"/>
  <path d="m136 350q-7 10 0 20m240-20q7 10 0 20" fill="none" stroke-linecap="round" stroke-width="4"/>
  <rect x="199" y="309" width="18" height="72" rx="5" fill="#f4978e" stroke-width="6"/>
  <path d="m199 332 18-6m-18 38 18-6" fill="none" stroke-width="3.5"/>
  <rect x="295" y="309" width="18" height="72" rx="5" fill="#f4978e" stroke-width="6"/>
  <path d="m295 332 18-6m-18 38 18-6" fill="none" stroke-width="3.5"/>
 </g>
 <path d="m67.32 384q15.724-9 31.447 0t31.447 0 31.447 0 31.447 0 31.447 0 31.447 0 31.447 0 31.447 0 31.447 0 31.447 0 31.447 0 31.447 0a228 228 0 0 1-377.36 0z" fill="#9ed8d2" stroke="#1d2b3a" stroke-linejoin="round" stroke-width="8"/>
 <path d="m106 422q15-8 30 0t30 0 30 0 30 0 30 0 30 0 30 0 30 0 30 0 30 0m-240 32q15-7 30 0t30 0 30 0 30 0 30 0 30 0" fill="none" stroke="#fdf5e6" stroke-linecap="round" stroke-width="8"/>
 <circle cx="256" cy="256" r="232" fill="none" stroke="#1d2b3a" stroke-width="18"/>
</svg>
