<svg width="1920" height="1080" viewBox="0 0 1920 1080" fill="none" xmlns="http://www.w3.org/2000/svg">
  <g opacity="0.20">
  <!-- Distribution Hub: Low Poly Map / Landscape -->
  <!-- Abstract Node 1 (Center Hub) -->
  <g transform="translate(800, 400)">
    <!-- Base -->
    <polygon points="160,200 320,120 160,40 0,120" fill="#475569" opacity="0.8"/>
    <polygon points="0,120 160,200 160,280 0,200" fill="#334155" opacity="0.9"/>
    <polygon points="160,200 320,120 320,200 160,280" fill="#1E293B" opacity="0.9"/>
    <!-- Upper Building -->
    <polygon points="160,170 280,110 160,50 40,110" fill="#F59E0B" opacity="0.9"/>
    <polygon points="40,110 160,170 160,220 40,160" fill="#D97706" opacity="0.9"/>
    <polygon points="160,170 280,110 280,160 160,220" fill="#B45309" opacity="0.9"/>
    <!-- Spire -->
    <polygon points="160,140 190,125 160,30 130,125" fill="#FCD34D" opacity="0.8"/>
  </g>

  <!-- Node 2 (Left Hub) -->
  <g transform="translate(300, 600) scale(0.7)">
    <polygon points="160,200 320,120 160,40 0,120" fill="#64748B" opacity="0.8"/>
    <polygon points="0,120 160,200 160,280 0,200" fill="#475569" opacity="0.9"/>
    <polygon points="160,200 320,120 320,200 160,280" fill="#334155" opacity="0.9"/>
    <polygon points="160,170 250,125 160,80 70,125" fill="#BE123C" opacity="0.9"/>
    <polygon points="70,125 160,170 160,220 70,175" fill="#9F1239" opacity="0.9"/>
    <polygon points="160,170 250,125 250,175 160,220" fill="#881337" opacity="0.9"/>
  </g>

  <!-- Node 3 (Right Hub) -->
  <g transform="translate(1400, 250) scale(0.6)">
    <polygon points="160,200 320,120 160,40 0,120" fill="#64748B" opacity="0.8"/>
    <polygon points="0,120 160,200 160,280 0,200" fill="#475569" opacity="0.9"/>
    <polygon points="160,200 320,120 320,200 160,280" fill="#334155" opacity="0.9"/>
    <polygon points="160,170 250,125 160,80 70,125" fill="#65A30D" opacity="0.9"/>
    <polygon points="70,125 160,170 160,220 70,175" fill="#4D7C0F" opacity="0.9"/>
    <polygon points="160,170 250,125 250,175 160,220" fill="#3F6212" opacity="0.9"/>
  </g>

  <!-- Node 4 (Bottom Right Hub) -->
  <g transform="translate(1300, 750) scale(0.8)">
    <polygon points="160,200 320,120 160,40 0,120" fill="#64748B" opacity="0.8"/>
    <polygon points="0,120 160,200 160,280 0,200" fill="#475569" opacity="0.9"/>
    <polygon points="160,200 320,120 320,200 160,280" fill="#334155" opacity="0.9"/>
    <polygon points="160,170 250,125 160,80 70,125" fill="#BE123C" opacity="0.9"/>
    <polygon points="70,125 160,170 160,220 70,175" fill="#9F1239" opacity="0.9"/>
    <polygon points="160,170 250,125 250,175 160,220" fill="#881337" opacity="0.9"/>
  </g>

  <!-- Connections / Low Poly Paths between Hubs -->
  <!-- Center to Left -->
  <polygon points="960,520 860,570 412,687 430,710 980,550" fill="#475569" opacity="0.5"/>
  <polygon points="960,520 980,550 430,710 412,687" fill="#F59E0B" opacity="0.2"/>
  
  <!-- Center to Right Top -->
  <polygon points="1060,480 1496,335 1520,350 1080,500" fill="#475569" opacity="0.5"/>
  <polygon points="1060,480 1080,500 1520,350 1496,335" fill="#65A30D" opacity="0.2"/>

  <!-- Center to Bottom Right -->
  <polygon points="1020,580 1428,837 1450,850 1040,600" fill="#475569" opacity="0.5"/>
  <polygon points="1020,580 1040,600 1450,850 1428,837" fill="#BE123C" opacity="0.2"/>

  <!-- Left to Bottom Right -->
  <polygon points="460,750 1356,925 1370,900 480,720" fill="#334155" opacity="0.3"/>
  
  <!-- Right Top to Center -->
  <!-- Already handled, add some floating data poly points -->
  <g fill="#FCD34D" opacity="0.8">
    <polygon points="600,600 620,590 610,610"/>
    <polygon points="1300,400 1320,390 1310,410"/>
    <polygon points="1200,700 1220,690 1210,710"/>
  </g>
  </g>
</svg>