<svg width="1920" height="1080" viewBox="0 0 1920 1080" xmlns="http://www.w3.org/2000/svg">
  <!-- Ceiling lights -->
  <path d="M400 0 L1520 0 L1100 300 L820 300 Z" fill="#334155" opacity="0.3" />

  <!-- Left Shelves -->
  <path d="M0 1080 L600 700 L600 200 L0 0 Z" fill="#1e293b" />
  <path d="M0 900 L550 600 L550 250 L0 100 Z" fill="#334155" />

  <!-- Right Shelves -->
  <path d="M1920 1080 L1320 700 L1320 200 L1920 0 Z" fill="#1e293b" />
  <path d="M1920 900 L1370 600 L1370 250 L1920 100 Z" fill="#334155" />

  <!-- Boxes on Left -->
  <path d="M50 800 L200 750 L200 650 L50 700 Z" fill="#475569" />
  <path d="M200 750 L250 720 L250 620 L200 650 Z" fill="#64748b" />
  <path d="M50 700 L200 650 L250 620 L100 670 Z" fill="#94a3b8" />

  <!-- Boxes on Right -->
  <path d="M1870 800 L1720 750 L1720 650 L1870 700 Z" fill="#475569" />
  <path d="M1720 750 L1670 720 L1670 620 L1720 650 Z" fill="#64748b" />
  <path d="M1870 700 L1720 650 L1670 620 L1820 670 Z" fill="#94a3b8" />

  <!-- Floor Grid lines -->
  <path d="M0 1080 L960 540" stroke="#334155" stroke-width="2" />
  <path d="M1920 1080 L960 540" stroke="#334155" stroke-width="2" />
  <path d="M480 1080 L960 540" stroke="#334155" stroke-width="2" />
  <path d="M1440 1080 L960 540" stroke="#334155" stroke-width="2" />
</svg>