<?xml version="1.0" standalone="no"?>
<!DOCTYPE svg PUBLIC "-//W3C//DTD SVG 20010904//EN"
 "http://www.w3.org/TR/2001/REC-SVG-20010904/DTD/svg10.dtd">
<svg version="1.0" xmlns="http://www.w3.org/2000/svg"
 width="531.000000pt" height="534.000000pt" viewBox="0 0 531.000000 534.000000"
 preserveAspectRatio="xMidYMid meet">
<metadata>
Created by potrace 1.10, written by Peter Selinger 2001-2011
</metadata>
<g transform="translate(0.000000,534.000000) scale(0.050000,-0.050000)"
fill="#000000" stroke="none">
<path d="M912 10419 c-526 -82 -731 -413 -731 -1179 0 -721 152 -1011 604
-1156 158 -50 1017 -49 1175 2 458 147 590 405 590 1154 0 750 -135 1012 -590
1151 -130 39 -852 59 -1048 28z m1008 -381 c253 -114 300 -238 300 -795 0
-552 -42 -670 -287 -799 l-103 -54 -450 0 c-771 0 -860 88 -860 850 0 550 48
680 289 792 145 68 964 73 1111 6z"/>
<path d="M1137 9690 c-468 -244 -294 -955 233 -955 549 0 704 763 197 975
-113 47 -319 38 -430 -20z"/>
<path d="M3683 10409 c-173 -73 -116 -309 75 -309 62 0 88 12 121 53 112 142
-28 326 -196 256z"/>
<path d="M4385 10424 c-60 -9 -125 -96 -125 -168 0 -142 210 -215 299 -103
103 131 -3 297 -174 271z"/>
<path d="M5065 10424 c-118 -18 -161 -210 -63 -289 67 -55 186 -46 237 18 103
131 -3 297 -174 271z"/>
<path d="M5723 10409 c-77 -33 -110 -95 -94 -181 25 -131 208 -179 290 -75
112 142 -28 326 -196 256z"/>
<path d="M7032 10419 c-525 -82 -731 -414 -731 -1179 0 -642 85 -859 419
-1070 201 -127 1060 -180 1365 -84 427 135 579 409 591 1070 14 795 -136 1104
-603 1238 -124 36 -860 53 -1041 25z m1038 -394 c234 -121 260 -198 260 -785
0 -551 -7 -583 -160 -717 -143 -126 -174 -132 -670 -133 -768 0 -860 90 -860
845 0 526 38 644 249 775 l98 60 381 10 c451 12 594 1 702 -55z"/>
<path d="M7257 9690 c-466 -243 -293 -953 233 -956 465 -2 687 579 338 885
-153 135 -392 164 -571 71z"/>
<path d="M3003 10069 c-88 -38 -103 -84 -103 -319 0 -239 15 -281 111 -322
163 -68 229 25 229 324 0 297 -68 388 -237 317z"/>
<path d="M4727 10084 c-76 -11 -116 -79 -127 -211 l-10 -123 -127 -10 c-194
-15 -266 -144 -155 -274 48 -56 50 -56 292 -56 329 0 340 11 340 338 0 289
-46 362 -213 336z"/>
<path d="M3969 10031 c-31 -31 -49 -72 -49 -111 0 -149 194 -220 295 -108 144
160 -93 372 -246 219z"/>
<path d="M5329 10031 c-113 -113 1 -306 163 -275 63 12 128 95 128 164 0 147
-185 217 -291 111z"/>
<path d="M3297 9362 c-38 -31 -49 -63 -57 -165 l-10 -127 -127 -10 c-290 -23
-278 -315 14 -336 l123 -9 0 -86 c0 -174 78 -249 259 -249 l81 0 0 -109 c0
-143 59 -219 170 -219 111 0 170 76 170 219 l0 109 170 0 170 0 0 -109 c0
-143 59 -219 170 -219 111 0 170 76 170 217 l0 106 123 9 c164 12 217 68 217
227 l0 109 170 0 170 0 0 -109 c0 -143 59 -219 170 -219 111 0 170 76 170 217
l0 106 123 9 c191 14 217 55 217 344 0 273 -28 332 -159 332 -122 0 -169 -52
-181 -203 l-10 -127 -634 -10 c-736 -12 -700 -1 -716 -206 l-10 -124 -160 0
-160 0 -10 124 c-13 162 -44 193 -206 206 l-124 10 -10 123 c-16 195 -151 275
-283 169z"/>
<path d="M3969 9351 c-103 -103 -30 -273 119 -277 144 -4 221 158 131 273 -57
73 -180 74 -250 4z"/>
<path d="M2949 8331 c-46 -46 -49 -62 -49 -271 0 -297 46 -360 259 -360 l81 0
0 -89 c0 -232 55 -256 555 -248 l369 7 48 56 c149 174 46 262 -325 274 l-297
10 -10 124 c-13 162 -44 193 -206 206 l-124 10 -10 123 c-16 202 -166 283
-291 158z"/>
<path d="M4997 8342 c-38 -31 -49 -63 -57 -165 l-10 -127 -127 -10 c-165 -13
-234 -97 -184 -227 37 -98 113 -113 581 -113 l422 0 -6 -165 -6 -165 -467 -10
c-506 -11 -505 -10 -535 -131 -43 -171 66 -209 591 -209 l421 0 0 -109 c0
-159 53 -215 217 -227 l123 -9 0 -167 0 -168 -278 0 c-369 0 -402 -20 -402
-240 l0 -102 -165 6 -165 6 -10 127 c-11 143 -59 203 -161 203 -153 0 -179
-60 -179 -409 l0 -271 -170 0 -170 0 0 457 0 457 -49 53 c-54 58 -156 71 -213
27 -71 -54 -78 -106 -78 -553 l0 -441 -108 0 c-216 0 -307 -148 -174 -282 l59
-58 281 0 282 0 0 -170 0 -170 -510 0 -510 0 0 121 c0 147 -54 219 -166 219
-113 0 -174 -78 -174 -223 l0 -117 -340 0 -340 0 0 170 0 170 112 0 c195 0
300 170 179 291 -48 48 -58 49 -340 49 l-291 0 0 337 0 337 125 12 c197 18
284 167 166 285 -48 48 -58 49 -340 49 l-291 0 0 168 0 167 123 9 c192 14 217
54 217 348 0 217 -3 232 -49 279 l-49 49 -751 0 c-721 0 -753 -2 -790 -39
-133 -133 -22 -301 198 -301 l81 0 0 -89 c0 -124 30 -189 102 -219 139 -58
238 25 238 201 l0 107 170 0 170 0 0 -449 c0 -542 4 -551 217 -567 l123 -9 0
-167 0 -168 -118 0 c-142 0 -198 -38 -215 -144 -19 -117 71 -196 221 -196
l112 0 0 -170 0 -170 -340 0 -340 0 0 121 c0 194 -37 219 -327 219 -341 0
-353 -12 -353 -351 0 -208 1 -213 58 -271 l59 -58 281 0 282 0 0 -112 c0 -189
57 -228 340 -228 283 0 340 39 340 228 l0 112 170 0 170 0 0 -112 c0 -96 8
-119 58 -170 l59 -58 791 0 792 0 0 -170 0 -170 -287 0 c-381 0 -508 -108
-333 -283 l59 -59 402 6 403 6 48 56 c46 54 48 69 48 335 l0 279 170 0 170 0
0 -340 0 -340 -115 -1 c-206 -1 -296 -152 -167 -281 58 -57 62 -58 282 -58
283 0 340 39 340 228 l0 112 112 0 c159 0 228 69 228 228 l0 112 170 0 170 0
0 -112 c0 -159 69 -228 228 -228 l112 0 0 -170 0 -170 -115 -1 c-120 0 -163
-20 -202 -93 -67 -126 32 -246 205 -246 l112 0 0 -112 c0 -96 8 -119 58 -170
l59 -58 791 0 792 0 0 -112 c0 -173 120 -272 246 -205 85 46 93 75 93 372 l1
285 170 0 170 0 0 -112 c0 -173 120 -272 246 -205 83 44 93 78 93 323 1 335 2
334 -388 334 l-291 0 0 121 c0 169 -50 219 -219 219 l-121 0 0 340 0 340 112
0 c159 0 228 69 228 228 l0 112 170 0 170 0 0 -452 0 -451 58 -59 c51 -50 74
-58 170 -58 l112 0 0 -112 c0 -174 112 -267 247 -206 89 41 93 78 93 850 l0
730 -49 49 -49 49 -576 -1 c-421 0 -585 -7 -608 -25 -54 -41 -78 -107 -78
-213 l0 -101 -340 0 -340 0 0 121 c0 169 -50 219 -219 219 l-121 0 0 340 0
340 282 0 281 0 59 58 c84 85 90 491 9 573 -129 129 -291 23 -291 -190 l0
-103 -165 6 -165 6 -5 502 -6 502 125 12 c191 17 278 153 178 277 -36 45 -53
48 -335 57 l-297 10 -10 293 c-12 338 -28 377 -161 377 -118 0 -162 -50 -177
-201 l-12 -129 -160 0 -160 0 -10 123 c-16 195 -151 275 -283 169z m283 -2794
c0 -96 8 -119 58 -170 125 -124 282 -30 282 170 l0 112 170 0 170 0 0 -170 0
-170 -108 0 c-212 0 -232 -35 -232 -409 l0 -271 -510 0 -510 0 0 340 0 340
112 0 c159 0 228 69 228 228 l0 112 170 0 170 0 0 -112z m1700 -1418 l0 -510
-510 0 -510 0 0 510 0 510 510 0 510 0 0 -510z"/>
<path d="M6378 4274 c-91 -70 -100 -175 -20 -256 106 -105 282 -30 282 121 0
124 -166 209 -262 135z"/>
<path d="M2269 7647 c-122 -131 -8 -287 210 -287 l81 0 0 -170 0 -170 -120 0
c-169 0 -261 -105 -202 -233 57 -125 515 -156 614 -40 76 88 75 828 -1 904
-78 78 -509 75 -582 -4z"/>
<path d="M7065 7687 c-80 -32 -130 -727 -65 -897 72 -190 320 -97 320 120 l0
104 125 12 c291 26 302 311 12 334 l-127 10 -10 127 c-14 171 -115 246 -255
190z"/>
<path d="M7721 7661 c-133 -133 -22 -301 198 -301 l81 0 0 -89 c0 -217 183
-325 300 -176 66 84 59 488 -9 556 -69 68 -504 76 -570 10z"/>
<path d="M3629 6967 c-62 -67 -63 -149 -2 -220 99 -115 293 -39 293 115 0 144
-191 213 -291 105z"/>
<path d="M4345 7007 c-83 -33 -104 -183 -38 -260 99 -115 293 -39 293 115 0
114 -138 192 -255 145z"/>
<path d="M7745 7007 c-83 -33 -104 -183 -38 -260 99 -115 293 -39 293 115 0
114 -138 192 -255 145z"/>
<path d="M2978 6654 c-54 -41 -78 -107 -78 -213 l0 -101 -291 0 c-282 0 -292
-1 -340 -49 -69 -69 -65 -158 9 -233 l59 -58 451 0 452 0 0 -112 c0 -130 73
-228 170 -228 32 0 76 23 112 58 l58 59 0 402 c0 519 12 501 -334 500 -154 0
-247 -9 -268 -25z"/>
<path d="M5025 6667 c-83 -33 -104 -183 -38 -260 99 -115 293 -39 293 115 0
114 -138 192 -255 145z"/>
<path d="M7398 6654 c-66 -50 -78 -111 -78 -383 l0 -271 -108 0 c-181 0 -232
-52 -232 -239 l0 -101 -108 0 c-138 0 -167 -12 -203 -81 -90 -174 12 -259 311
-259 283 0 340 39 340 228 l0 112 622 0 621 0 59 58 c74 75 78 164 9 233 l-49
49 -461 0 -461 0 0 291 c0 282 -1 292 -49 340 -54 54 -158 65 -213 23z"/>
<path d="M581 6301 c-165 -165 -31 -300 296 -301 291 0 424 141 274 291 -69
68 -504 76 -570 10z"/>
<path d="M815 4269 c-269 -65 -493 -277 -592 -559 -80 -227 -49 -1095 47
-1305 166 -365 440 -485 1112 -485 632 0 880 104 1077 450 149 263 143 1238
-9 1498 -115 197 -310 346 -523 401 -163 41 -940 42 -1112 0z m1072 -341 c272
-93 333 -244 333 -828 l0 -434 -60 -120 c-121 -242 -236 -284 -784 -285 -759
-2 -857 96 -855 855 1 577 55 702 349 817 99 39 900 35 1017 -5z"/>
<path d="M1187 3589 c-329 -122 -426 -564 -180 -826 295 -313 827 -128 869
302 36 370 -337 653 -689 524z"/>
<path d="M4992 3898 c-68 -80 -66 -147 6 -220 153 -152 380 70 233 229 -71 77
-171 73 -239 -9z"/>
<path d="M2978 3594 c-74 -57 -78 -97 -78 -832 l0 -720 48 -56 49 -56 413 0
413 0 49 56 c38 45 48 79 48 165 l0 109 170 0 170 0 0 -112 c0 -96 8 -119 58
-170 l59 -58 383 0 c486 0 518 14 519 225 l1 115 101 0 c158 0 237 58 238 172
1 109 -75 168 -218 168 l-121 0 0 117 c0 210 -168 304 -288 161 -51 -59 -52
-69 -52 -340 l0 -278 -170 0 -170 0 0 117 c0 204 -33 223 -389 223 l-291 0 0
117 c0 145 -58 223 -164 222 -146 -1 -176 -70 -176 -408 l0 -271 -170 0 -170
0 0 631 0 631 -49 49 c-54 54 -158 65 -213 23z"/>
<path d="M4312 3218 c-140 -165 -23 -278 288 -278 253 0 340 45 340 176 0 131
-68 164 -337 164 l-239 0 -52 -62z"/>
<path d="M6038 2574 c-104 -80 -118 -497 -20 -596 l59 -58 553 0 c643 0 688
11 689 172 1 106 -80 168 -222 168 l-117 0 0 117 c0 100 -8 125 -53 170 l-52
53 -403 -1 c-284 0 -411 -7 -434 -25z"/>
<path d="M8058 2542 c-124 -125 -30 -282 170 -282 l112 0 0 -112 c0 -212 195
-305 314 -150 52 67 34 496 -23 553 -82 81 -488 75 -573 -9z"/>
<path d="M7718 2202 c-133 -134 23 -347 188 -259 108 57 127 179 41 264 -71
72 -153 70 -229 -5z"/>
</g>
</svg>
